<svg xmlns="http://www.w3.org/2000/svg" xmlns:xlink="http://www.w3.org/1999/xlink" width="500" zoomAndPan="magnify" viewBox="0 0 375 374.999991" height="500" preserveAspectRatio="xMidYMid meet" version="1.0"><defs><g/></defs><rect x="-37.5" width="450" fill="#ffffff" y="-37.499999" height="449.999989" fill-opacity="1"/><rect x="-37.5" width="450" fill="#fffce1" y="-37.499999" height="449.999989" fill-opacity="1"/><g fill="#0e100f" fill-opacity="1"><g transform="translate(43.724444, 207.808213)"><g><path d="M 7.453125 -42.484375 L 7.453125 -58.296875 L 22.109375 -58.296875 L 22.109375 -42.484375 L 31.0625 -42.484375 L 31.0625 -31.296875 L 22.109375 -31.296875 L 22.109375 -17.8125 C 22.109375 -13.882812 23.210938 -11.921875 25.421875 -11.921875 C 25.972656 -11.921875 26.550781 -12.03125 27.15625 -12.25 C 27.769531 -12.476562 28.242188 -12.703125 28.578125 -12.921875 L 29.0625 -13.25 L 32.71875 -1.40625 C 29.5625 0.363281 25.972656 1.25 21.953125 1.25 C 19.191406 1.25 16.816406 0.765625 14.828125 -0.203125 C 12.835938 -1.171875 11.332031 -2.46875 10.3125 -4.09375 C 9.289062 -5.726562 8.554688 -7.441406 8.109375 -9.234375 C 7.671875 -11.023438 7.453125 -12.941406 7.453125 -14.984375 L 7.453125 -31.296875 L 1.328125 -31.296875 L 1.328125 -42.484375 Z M 7.453125 -42.484375 "/></g></g></g><g fill="#0e100f" fill-opacity="1"><g transform="translate(69.972752, 207.808213)"><g><path d="M 7.859375 -5.25 C 3.890625 -9.59375 1.90625 -14.910156 1.90625 -21.203125 C 1.90625 -27.492188 3.890625 -32.816406 7.859375 -37.171875 C 11.835938 -41.535156 16.890625 -43.71875 23.015625 -43.71875 C 28.648438 -43.71875 33.289062 -41.953125 36.9375 -38.421875 L 36.9375 -42.484375 L 51.59375 -42.484375 L 51.59375 0 L 37.09375 0 L 37.09375 -4.796875 L 36.9375 -4.796875 C 33.289062 -0.765625 28.648438 1.25 23.015625 1.25 C 16.890625 1.25 11.835938 -0.914062 7.859375 -5.25 Z M 20.328125 -28.40625 C 18.421875 -26.53125 17.46875 -24.128906 17.46875 -21.203125 C 17.46875 -18.273438 18.378906 -15.882812 20.203125 -14.03125 C 22.023438 -12.1875 24.425781 -11.265625 27.40625 -11.265625 C 30.28125 -11.265625 32.640625 -12.203125 34.484375 -14.078125 C 36.335938 -15.953125 37.265625 -18.328125 37.265625 -21.203125 C 37.265625 -24.128906 36.3125 -26.53125 34.40625 -28.40625 C 32.5 -30.28125 30.164062 -31.21875 27.40625 -31.21875 C 24.59375 -31.21875 22.234375 -30.28125 20.328125 -28.40625 Z M 20.328125 -28.40625 "/></g></g></g><g fill="#0e100f" fill-opacity="1"><g transform="translate(120.068792, 207.808213)"><g><path d="M 4.96875 0 L 4.96875 -42.484375 L 19.625 -42.484375 L 19.625 -38.015625 L 19.796875 -38.015625 C 23.597656 -41.816406 27.65625 -43.71875 31.96875 -43.71875 C 34.0625 -43.71875 36.144531 -43.441406 38.21875 -42.890625 C 40.289062 -42.335938 42.273438 -41.484375 44.171875 -40.328125 C 46.078125 -39.171875 47.625 -37.53125 48.8125 -35.40625 C 50 -33.28125 50.59375 -30.804688 50.59375 -27.984375 L 50.59375 0 L 35.9375 0 L 35.9375 -24.015625 C 35.9375 -26.222656 35.234375 -28.15625 33.828125 -29.8125 C 32.421875 -31.46875 30.585938 -32.296875 28.328125 -32.296875 C 26.117188 -32.296875 24.113281 -31.4375 22.3125 -29.71875 C 20.519531 -28.007812 19.625 -26.109375 19.625 -24.015625 L 19.625 0 Z M 4.96875 0 "/></g></g></g><g fill="#0e100f" fill-opacity="1"><g transform="translate(168.343127, 207.808213)"><g><path d="M 6.375 -66.15625 C 8.082031 -67.875 10.125 -68.734375 12.5 -68.734375 C 14.875 -68.734375 16.914062 -67.875 18.625 -66.15625 C 20.34375 -64.445312 21.203125 -62.40625 21.203125 -60.03125 C 21.203125 -57.664062 20.34375 -55.625 18.625 -53.90625 C 16.914062 -52.195312 14.875 -51.34375 12.5 -51.34375 C 10.125 -51.34375 8.082031 -52.195312 6.375 -53.90625 C 4.664062 -55.625 3.8125 -57.664062 3.8125 -60.03125 C 3.8125 -62.40625 4.664062 -64.445312 6.375 -66.15625 Z M 4.96875 -42.484375 L 4.96875 0 L 19.625 0 L 19.625 -42.484375 Z M 4.96875 -42.484375 "/></g></g></g><g fill="#0e100f" fill-opacity="1"><g transform="translate(186.89061, 207.808213)"><g><path d="M 23.4375 -43.71875 C 25.863281 -43.71875 28.265625 -43.441406 30.640625 -42.890625 C 33.015625 -42.335938 34.78125 -41.785156 35.9375 -41.234375 L 37.6875 -40.40625 L 32.875 -30.8125 C 29.5625 -32.570312 26.414062 -33.453125 23.4375 -33.453125 C 21.78125 -33.453125 20.601562 -33.269531 19.90625 -32.90625 C 19.21875 -32.550781 18.875 -31.878906 18.875 -30.890625 C 18.875 -30.671875 18.898438 -30.445312 18.953125 -30.21875 C 19.015625 -30 19.128906 -29.789062 19.296875 -29.59375 C 19.460938 -29.40625 19.613281 -29.242188 19.75 -29.109375 C 19.882812 -28.972656 20.117188 -28.820312 20.453125 -28.65625 C 20.785156 -28.488281 21.046875 -28.363281 21.234375 -28.28125 C 21.429688 -28.195312 21.75 -28.070312 22.1875 -27.90625 C 22.632812 -27.738281 22.96875 -27.613281 23.1875 -27.53125 C 23.40625 -27.445312 23.773438 -27.320312 24.296875 -27.15625 C 24.828125 -27 25.226562 -26.890625 25.5 -26.828125 C 27.21875 -26.335938 28.710938 -25.785156 29.984375 -25.171875 C 31.253906 -24.566406 32.59375 -23.738281 34 -22.6875 C 35.40625 -21.644531 36.492188 -20.320312 37.265625 -18.71875 C 38.035156 -17.113281 38.421875 -15.289062 38.421875 -13.25 C 38.421875 -3.582031 31.710938 1.25 18.296875 1.25 C 15.265625 1.25 12.378906 0.78125 9.640625 -0.15625 C 6.910156 -1.101562 4.941406 -2.046875 3.734375 -2.984375 L 1.90625 -4.46875 L 7.875 -14.5 C 8.3125 -14.101562 8.890625 -13.644531 9.609375 -13.125 C 10.328125 -12.601562 11.625 -11.882812 13.5 -10.96875 C 15.375 -10.0625 17.003906 -9.609375 18.390625 -9.609375 C 21.421875 -9.609375 22.9375 -10.628906 22.9375 -12.671875 C 22.9375 -13.609375 22.550781 -14.335938 21.78125 -14.859375 C 21.007812 -15.390625 19.695312 -15.984375 17.84375 -16.640625 C 16 -17.304688 14.550781 -17.914062 13.5 -18.46875 C 10.851562 -19.84375 8.753906 -21.398438 7.203125 -23.140625 C 5.660156 -24.878906 4.890625 -27.1875 4.890625 -30.0625 C 4.890625 -34.363281 6.554688 -37.710938 9.890625 -40.109375 C 13.234375 -42.515625 17.75 -43.71875 23.4375 -43.71875 Z M 23.4375 -43.71875 "/></g></g></g><g fill="#0e100f" fill-opacity="1"><g transform="translate(221.170962, 207.808213)"><g><path d="M 4.96875 0 L 4.96875 -71.21875 L 19.625 -71.21875 L 19.625 -38.015625 L 19.796875 -38.015625 C 23.597656 -41.816406 27.65625 -43.71875 31.96875 -43.71875 C 34.0625 -43.71875 36.144531 -43.441406 38.21875 -42.890625 C 40.289062 -42.335938 42.273438 -41.484375 44.171875 -40.328125 C 46.078125 -39.171875 47.625 -37.53125 48.8125 -35.40625 C 50 -33.28125 50.59375 -30.804688 50.59375 -27.984375 L 50.59375 0 L 35.9375 0 L 35.9375 -24.015625 C 35.9375 -26.222656 35.234375 -28.15625 33.828125 -29.8125 C 32.421875 -31.46875 30.585938 -32.296875 28.328125 -32.296875 C 26.117188 -32.296875 24.113281 -31.4375 22.3125 -29.71875 C 20.519531 -28.007812 19.625 -26.109375 19.625 -24.015625 L 19.625 0 Z M 4.96875 0 "/></g></g></g><g fill="#0e100f" fill-opacity="1"><g transform="translate(269.445297, 207.808213)"><g><path d="M 7.859375 -5.296875 C 3.890625 -9.660156 1.90625 -14.988281 1.90625 -21.28125 C 1.90625 -27.570312 3.890625 -32.882812 7.859375 -37.21875 C 11.835938 -41.550781 16.890625 -43.71875 23.015625 -43.71875 C 28.648438 -43.71875 33.289062 -41.707031 36.9375 -37.6875 L 37.09375 -37.6875 L 37.09375 -42.484375 L 51.59375 -42.484375 L 51.59375 21.53125 L 36.9375 21.53125 L 36.9375 -4.0625 C 33.289062 -0.519531 28.648438 1.25 23.015625 1.25 C 16.890625 1.25 11.835938 -0.929688 7.859375 -5.296875 Z M 20.203125 -28.4375 C 18.378906 -26.59375 17.46875 -24.207031 17.46875 -21.28125 C 17.46875 -18.351562 18.421875 -15.953125 20.328125 -14.078125 C 22.234375 -12.203125 24.59375 -11.265625 27.40625 -11.265625 C 30.164062 -11.265625 32.5 -12.203125 34.40625 -14.078125 C 36.3125 -15.953125 37.265625 -18.351562 37.265625 -21.28125 C 37.265625 -24.15625 36.335938 -26.53125 34.484375 -28.40625 C 32.640625 -30.28125 30.28125 -31.21875 27.40625 -31.21875 C 24.425781 -31.21875 22.023438 -30.289062 20.203125 -28.4375 Z M 20.203125 -28.4375 "/></g></g></g><g fill="#0e100f" fill-opacity="1"><g transform="translate(319.541324, 207.808213)"><g><path d="M 14.40625 -17.71875 C 17.0625 -17.71875 19.3125 -16.789062 21.15625 -14.9375 C 23.007812 -13.09375 23.9375 -10.847656 23.9375 -8.203125 C 23.9375 -5.609375 23.007812 -3.382812 21.15625 -1.53125 C 19.3125 0.320312 17.0625 1.25 14.40625 1.25 C 11.8125 1.25 9.585938 0.320312 7.734375 -1.53125 C 5.890625 -3.382812 4.96875 -5.609375 4.96875 -8.203125 C 4.96875 -10.847656 5.890625 -13.09375 7.734375 -14.9375 C 9.585938 -16.789062 11.8125 -17.71875 14.40625 -17.71875 Z M 14.40625 -17.71875 "/></g></g></g><g fill="#0e100f" fill-opacity="1"><g transform="translate(128.745141, 227.87736)"><g><path d="M 1.296875 -4.96875 L 1.296875 -3.125 L 3.640625 -3.140625 L 3.640625 -2.578125 L 1.296875 -2.578125 L 1.296875 0 L 0.59375 0 L 0.59375 -5.59375 L 3.9375 -5.59375 L 3.9375 -4.96875 Z M 1.296875 -4.96875 "/></g></g></g><g fill="#0e100f" fill-opacity="1"><g transform="translate(135.27362, 227.87736)"><g><path d="M 2.28125 -2.234375 L 1.28125 -2.234375 L 1.28125 0 L 0.59375 0 L 0.59375 -5.59375 L 2.5 -5.59375 C 2.957031 -5.59375 3.332031 -5.507812 3.625 -5.34375 C 3.914062 -5.1875 4.125 -4.976562 4.25 -4.71875 C 4.375 -4.46875 4.4375 -4.195312 4.4375 -3.90625 C 4.4375 -3.519531 4.320312 -3.171875 4.09375 -2.859375 C 3.863281 -2.554688 3.503906 -2.359375 3.015625 -2.265625 L 4.484375 0 L 3.734375 0 Z M 1.28125 -2.828125 L 2.421875 -2.828125 C 2.796875 -2.828125 3.113281 -2.90625 3.375 -3.0625 C 3.632812 -3.226562 3.765625 -3.507812 3.765625 -3.90625 C 3.765625 -4.300781 3.632812 -4.578125 3.375 -4.734375 C 3.113281 -4.890625 2.796875 -4.96875 2.421875 -4.96875 L 1.28125 -4.96875 Z M 1.28125 -2.828125 "/></g></g></g><g fill="#0e100f" fill-opacity="1"><g transform="translate(142.514155, 227.87736)"><g><path d="M 2.9375 0.0625 C 2.40625 0.0625 1.945312 -0.0625 1.5625 -0.3125 C 1.1875 -0.5625 0.898438 -0.898438 0.703125 -1.328125 C 0.503906 -1.765625 0.40625 -2.265625 0.40625 -2.828125 C 0.40625 -3.378906 0.503906 -3.875 0.703125 -4.3125 C 0.910156 -4.75 1.203125 -5.09375 1.578125 -5.34375 C 1.960938 -5.59375 2.414062 -5.71875 2.9375 -5.71875 C 3.46875 -5.71875 3.921875 -5.59375 4.296875 -5.34375 C 4.671875 -5.09375 4.957031 -4.75 5.15625 -4.3125 C 5.351562 -3.875 5.453125 -3.375 5.453125 -2.8125 C 5.453125 -2.25 5.351562 -1.753906 5.15625 -1.328125 C 4.957031 -0.898438 4.671875 -0.5625 4.296875 -0.3125 C 3.921875 -0.0625 3.46875 0.0625 2.9375 0.0625 Z M 2.9375 -0.578125 C 3.300781 -0.578125 3.617188 -0.671875 3.890625 -0.859375 C 4.160156 -1.054688 4.367188 -1.320312 4.515625 -1.65625 C 4.660156 -2 4.734375 -2.390625 4.734375 -2.828125 C 4.734375 -3.265625 4.660156 -3.65625 4.515625 -4 C 4.367188 -4.34375 4.160156 -4.609375 3.890625 -4.796875 C 3.617188 -4.992188 3.300781 -5.09375 2.9375 -5.09375 C 2.570312 -5.09375 2.25 -4.992188 1.96875 -4.796875 C 1.695312 -4.597656 1.488281 -4.328125 1.34375 -3.984375 C 1.207031 -3.648438 1.140625 -3.265625 1.140625 -2.828125 C 1.140625 -2.390625 1.207031 -2 1.34375 -1.65625 C 1.488281 -1.320312 1.695312 -1.054688 1.96875 -0.859375 C 2.25 -0.671875 2.570312 -0.578125 2.9375 -0.578125 Z M 2.9375 -0.578125 "/></g></g></g><g fill="#0e100f" fill-opacity="1"><g transform="translate(150.79477, 227.87736)"><g><path d="M 0.59375 -5.59375 L 1.375 -5.59375 L 4.375 -1.109375 L 4.40625 -1.109375 L 4.40625 -5.59375 L 5.09375 -5.59375 L 5.09375 0 L 4.296875 0 L 1.3125 -4.4375 L 1.28125 -4.4375 L 1.28125 0 L 0.59375 0 Z M 0.59375 -5.59375 "/></g></g></g><g fill="#0e100f" fill-opacity="1"><g transform="translate(158.883363, 227.87736)"><g><path d="M 4.34375 -4.96875 L 2.703125 -4.96875 L 2.703125 0 L 2.015625 0 L 2.015625 -4.96875 L 0.359375 -4.96875 L 0.359375 -5.59375 L 4.34375 -5.59375 Z M 4.34375 -4.96875 "/></g></g></g><g fill="#0e100f" fill-opacity="1"><g transform="translate(165.995886, 227.87736)"><g><path d="M 0.9375 -2.78125 L 3.875 -2.78125 L 3.875 -2.21875 L 0.9375 -2.21875 Z M 0.9375 -2.78125 "/></g></g></g><g fill="#0e100f" fill-opacity="1"><g transform="translate(173.204414, 227.87736)"><g><path d="M 1.296875 -4.96875 L 1.296875 -3.140625 L 3.71875 -3.140625 L 3.71875 -2.578125 L 1.296875 -2.578125 L 1.296875 -0.625 L 4.046875 -0.625 L 4.046875 0 L 0.59375 0 L 0.59375 -5.59375 L 4.046875 -5.59375 L 4.046875 -4.96875 Z M 1.296875 -4.96875 "/></g></g></g><g fill="#0e100f" fill-opacity="1"><g transform="translate(180.156923, 227.87736)"><g><path d="M 0.59375 -5.59375 L 1.375 -5.59375 L 4.375 -1.109375 L 4.40625 -1.109375 L 4.40625 -5.59375 L 5.09375 -5.59375 L 5.09375 0 L 4.296875 0 L 1.3125 -4.4375 L 1.28125 -4.4375 L 1.28125 0 L 0.59375 0 Z M 0.59375 -5.59375 "/></g></g></g><g fill="#0e100f" fill-opacity="1"><g transform="translate(188.245516, 227.87736)"><g><path d="M 0.59375 -5.59375 L 2.640625 -5.59375 C 3.148438 -5.59375 3.59375 -5.476562 3.96875 -5.25 C 4.34375 -5.03125 4.628906 -4.707031 4.828125 -4.28125 C 5.035156 -3.863281 5.140625 -3.375 5.140625 -2.8125 C 5.140625 -2.238281 5.035156 -1.738281 4.828125 -1.3125 C 4.628906 -0.894531 4.335938 -0.570312 3.953125 -0.34375 C 3.578125 -0.113281 3.140625 0 2.640625 0 L 0.59375 0 Z M 2.546875 -0.640625 C 3.109375 -0.640625 3.5625 -0.820312 3.90625 -1.1875 C 4.25 -1.5625 4.421875 -2.101562 4.421875 -2.8125 C 4.421875 -3.507812 4.25 -4.039062 3.90625 -4.40625 C 3.570312 -4.78125 3.117188 -4.96875 2.546875 -4.96875 L 1.265625 -4.96875 L 1.265625 -0.640625 Z M 2.546875 -0.640625 "/></g></g></g><g fill="#0e100f" fill-opacity="1"><g transform="translate(196.1421, 227.87736)"><g/></g></g><g fill="#0e100f" fill-opacity="1"><g transform="translate(200.382407, 227.87736)"><g><path d="M 0.59375 -5.59375 L 2.640625 -5.59375 C 3.148438 -5.59375 3.59375 -5.476562 3.96875 -5.25 C 4.34375 -5.03125 4.628906 -4.707031 4.828125 -4.28125 C 5.035156 -3.863281 5.140625 -3.375 5.140625 -2.8125 C 5.140625 -2.238281 5.035156 -1.738281 4.828125 -1.3125 C 4.628906 -0.894531 4.335938 -0.570312 3.953125 -0.34375 C 3.578125 -0.113281 3.140625 0 2.640625 0 L 0.59375 0 Z M 2.546875 -0.640625 C 3.109375 -0.640625 3.5625 -0.820312 3.90625 -1.1875 C 4.25 -1.5625 4.421875 -2.101562 4.421875 -2.8125 C 4.421875 -3.507812 4.25 -4.039062 3.90625 -4.40625 C 3.570312 -4.78125 3.117188 -4.96875 2.546875 -4.96875 L 1.265625 -4.96875 L 1.265625 -0.640625 Z M 2.546875 -0.640625 "/></g></g></g><g fill="#0e100f" fill-opacity="1"><g transform="translate(208.27899, 227.87736)"><g><path d="M 1.296875 -4.96875 L 1.296875 -3.140625 L 3.71875 -3.140625 L 3.71875 -2.578125 L 1.296875 -2.578125 L 1.296875 -0.625 L 4.046875 -0.625 L 4.046875 0 L 0.59375 0 L 0.59375 -5.59375 L 4.046875 -5.59375 L 4.046875 -4.96875 Z M 1.296875 -4.96875 "/></g></g></g><g fill="#0e100f" fill-opacity="1"><g transform="translate(215.231504, 227.87736)"><g><path d="M 0.109375 -5.59375 L 0.8125 -5.59375 L 2.515625 -0.703125 L 2.5625 -0.703125 L 4.25 -5.59375 L 4.953125 -5.59375 L 3.015625 0 L 2.0625 0 Z M 0.109375 -5.59375 "/></g></g></g><g fill="#0e100f" fill-opacity="1"><g transform="translate(222.696056, 227.87736)"><g><path d="M 1.296875 -4.96875 L 1.296875 -3.140625 L 3.71875 -3.140625 L 3.71875 -2.578125 L 1.296875 -2.578125 L 1.296875 -0.625 L 4.046875 -0.625 L 4.046875 0 L 0.59375 0 L 0.59375 -5.59375 L 4.046875 -5.59375 L 4.046875 -4.96875 Z M 1.296875 -4.96875 "/></g></g></g><g fill="#0e100f" fill-opacity="1"><g transform="translate(229.64857, 227.87736)"><g><path d="M 3.90625 -0.625 L 3.90625 0 L 0.59375 0 L 0.59375 -5.59375 L 1.296875 -5.59375 L 1.28125 -0.625 Z M 3.90625 -0.625 "/></g></g></g><g fill="#0e100f" fill-opacity="1"><g transform="translate(236.281054, 227.87736)"><g><path d="M 2.9375 0.0625 C 2.40625 0.0625 1.945312 -0.0625 1.5625 -0.3125 C 1.1875 -0.5625 0.898438 -0.898438 0.703125 -1.328125 C 0.503906 -1.765625 0.40625 -2.265625 0.40625 -2.828125 C 0.40625 -3.378906 0.503906 -3.875 0.703125 -4.3125 C 0.910156 -4.75 1.203125 -5.09375 1.578125 -5.34375 C 1.960938 -5.59375 2.414062 -5.71875 2.9375 -5.71875 C 3.46875 -5.71875 3.921875 -5.59375 4.296875 -5.34375 C 4.671875 -5.09375 4.957031 -4.75 5.15625 -4.3125 C 5.351562 -3.875 5.453125 -3.375 5.453125 -2.8125 C 5.453125 -2.25 5.351562 -1.753906 5.15625 -1.328125 C 4.957031 -0.898438 4.671875 -0.5625 4.296875 -0.3125 C 3.921875 -0.0625 3.46875 0.0625 2.9375 0.0625 Z M 2.9375 -0.578125 C 3.300781 -0.578125 3.617188 -0.671875 3.890625 -0.859375 C 4.160156 -1.054688 4.367188 -1.320312 4.515625 -1.65625 C 4.660156 -2 4.734375 -2.390625 4.734375 -2.828125 C 4.734375 -3.265625 4.660156 -3.65625 4.515625 -4 C 4.367188 -4.34375 4.160156 -4.609375 3.890625 -4.796875 C 3.617188 -4.992188 3.300781 -5.09375 2.9375 -5.09375 C 2.570312 -5.09375 2.25 -4.992188 1.96875 -4.796875 C 1.695312 -4.597656 1.488281 -4.328125 1.34375 -3.984375 C 1.207031 -3.648438 1.140625 -3.265625 1.140625 -2.828125 C 1.140625 -2.390625 1.207031 -2 1.34375 -1.65625 C 1.488281 -1.320312 1.695312 -1.054688 1.96875 -0.859375 C 2.25 -0.671875 2.570312 -0.578125 2.9375 -0.578125 Z M 2.9375 -0.578125 "/></g></g></g><g fill="#0e100f" fill-opacity="1"><g transform="translate(244.561672, 227.87736)"><g><path d="M 2.5 -5.59375 C 2.957031 -5.59375 3.332031 -5.503906 3.625 -5.328125 C 3.914062 -5.148438 4.125 -4.921875 4.25 -4.640625 C 4.375 -4.359375 4.4375 -4.066406 4.4375 -3.765625 C 4.4375 -3.453125 4.375 -3.15625 4.25 -2.875 C 4.125 -2.601562 3.914062 -2.378906 3.625 -2.203125 C 3.332031 -2.023438 2.957031 -1.9375 2.5 -1.9375 L 1.265625 -1.9375 L 1.265625 0 L 0.59375 0 L 0.59375 -5.59375 Z M 2.421875 -2.53125 C 2.796875 -2.53125 3.113281 -2.625 3.375 -2.8125 C 3.632812 -3 3.765625 -3.316406 3.765625 -3.765625 C 3.765625 -4.203125 3.632812 -4.507812 3.375 -4.6875 C 3.113281 -4.875 2.796875 -4.96875 2.421875 -4.96875 L 1.265625 -4.96875 L 1.265625 -2.53125 Z M 2.421875 -2.53125 "/></g></g></g><g fill="#0e100f" fill-opacity="1"><g transform="translate(251.642196, 227.87736)"><g><path d="M 1.296875 -4.96875 L 1.296875 -3.140625 L 3.71875 -3.140625 L 3.71875 -2.578125 L 1.296875 -2.578125 L 1.296875 -0.625 L 4.046875 -0.625 L 4.046875 0 L 0.59375 0 L 0.59375 -5.59375 L 4.046875 -5.59375 L 4.046875 -4.96875 Z M 1.296875 -4.96875 "/></g></g></g><g fill="#0e100f" fill-opacity="1"><g transform="translate(258.594709, 227.87736)"><g><path d="M 2.28125 -2.234375 L 1.28125 -2.234375 L 1.28125 0 L 0.59375 0 L 0.59375 -5.59375 L 2.5 -5.59375 C 2.957031 -5.59375 3.332031 -5.507812 3.625 -5.34375 C 3.914062 -5.1875 4.125 -4.976562 4.25 -4.71875 C 4.375 -4.46875 4.4375 -4.195312 4.4375 -3.90625 C 4.4375 -3.519531 4.320312 -3.171875 4.09375 -2.859375 C 3.863281 -2.554688 3.503906 -2.359375 3.015625 -2.265625 L 4.484375 0 L 3.734375 0 Z M 1.28125 -2.828125 L 2.421875 -2.828125 C 2.796875 -2.828125 3.113281 -2.90625 3.375 -3.0625 C 3.632812 -3.226562 3.765625 -3.507812 3.765625 -3.90625 C 3.765625 -4.300781 3.632812 -4.578125 3.375 -4.734375 C 3.113281 -4.890625 2.796875 -4.96875 2.421875 -4.96875 L 1.28125 -4.96875 Z M 1.28125 -2.828125 "/></g></g></g></svg>